<svg aria-hidden="true" style="position: absolute; width: 0; height: 0; overflow: hidden;" version="1.1" xmlns="http://www.w3.org/2000/svg" xmlns:xlink="http://www.w3.org/1999/xlink">
<defs>
<symbol id="icon-burger-menu" viewBox="0 0 64 32">
<path stroke-linejoin="round" stroke-linecap="round" stroke-miterlimit="4" stroke-width="4" d="M56 20.667h-48"></path>
<path stroke-linejoin="round" stroke-linecap="round" stroke-miterlimit="4" stroke-width="4" d="M56 10h-48"></path>
</symbol>
<symbol id="icon-arrow" viewBox="0 0 32 32">
<path stroke-linejoin="round" stroke-linecap="butt" stroke-miterlimit="4" stroke-width="2.9714" d="M15 28l13-13-13-13M2 15h26"></path>
</symbol>
<symbol id="icon-close-btn" viewBox="0 0 32 32">
<path stroke-linejoin="round" stroke-linecap="butt" stroke-miterlimit="4" stroke-width="4.1717" d="M29.905 2.094l-27.811 27.811M2.094 2.094l27.811 27.811"></path>
</symbol>
<symbol id="icon-facebook" viewBox="0 0 32 32">
<path d="M19.52 4.64c0.239 0 0.48 0 0.959 0v3.6c-0.239 0-0.72 0-1.2 0s-0.959 0-1.2 0.24c-0.239 0.24-0.239 0.48-0.239 1.040 0 0.48 0 0.8 0 1.28h2.639v3.040h-2.639v13.2h-4.081v-13.28h-2.159v-3.040h2.159v-1.040c0-1.76 0.241-3.040 0.72-3.6 0.72-1.040 2.161-1.52 4.32-1.52 0.241 0.080 0.48 0.080 0.72 0.080z"></path>
</symbol>
<symbol id="icon-heart" viewBox="0 0 36 32">
<path stroke-linejoin="round" stroke-linecap="butt" stroke-miterlimit="4" stroke-width="3.1634" d="M29.272 2.244c-1.057-0.437-2.187-0.663-3.33-0.663s-2.274 0.225-3.33 0.663c-1.054 0.437-2.014 1.078-2.822 1.887l-1.676 1.677-1.676-1.677c-1.633-1.632-3.845-2.549-6.154-2.549s-4.521 0.917-6.154 2.549c-1.631 1.632-2.548 3.845-2.548 6.153s0.916 4.521 2.548 6.153l13.984 13.982 13.982-13.982c0.807-0.808 1.448-1.767 1.886-2.823 0.437-1.056 0.663-2.187 0.663-3.33s-0.227-2.274-0.663-3.33c-0.439-1.056-1.079-2.015-1.886-2.823-0.809-0.808-1.767-1.449-2.824-1.887z"></path>
</symbol>
<symbol id="icon-instagram" viewBox="0 0 32 32">
<path d="M28.717 10.756c-0.016-1.074-0.214-2.14-0.595-3.145-0.667-1.716-2.025-3.073-3.744-3.737-0.992-0.373-2.044-0.573-3.106-0.596-1.369-0.061-1.802-0.078-5.273-0.078s-3.916 0-5.273 0.078c-1.063 0.023-2.113 0.223-3.106 0.596-1.719 0.664-3.078 2.021-3.744 3.737-0.373 0.992-0.575 2.041-0.595 3.101-0.061 1.366-0.080 1.8-0.080 5.265s0 3.909 0.080 5.265c0.022 1.062 0.222 2.109 0.595 3.104 0.667 1.714 2.025 3.071 3.745 3.736 0.989 0.386 2.039 0.604 3.106 0.639 1.369 0.061 1.802 0.079 5.273 0.079s3.917 0 5.273-0.079c1.063-0.021 2.112-0.221 3.108-0.595 1.719-0.666 3.076-2.022 3.744-3.737 0.373-0.993 0.573-2.041 0.595-3.104 0.061-1.365 0.080-1.798 0.080-5.265-0.003-3.466-0.003-3.906-0.083-5.264zM15.991 22.531c-3.631 0-6.572-2.936-6.572-6.561s2.941-6.561 6.572-6.561c3.627 0 6.572 2.936 6.572 6.561s-2.945 6.561-6.572 6.561zM22.823 10.696c-0.848 0-1.533-0.684-1.533-1.53s0.684-1.53 1.533-1.53c0.845 0 1.531 0.684 1.531 1.53s-0.686 1.53-1.531 1.53z"></path>
<path d="M19.995 15.972c0 2.211-1.792 4.004-4.003 4.004-2.213 0-4.005-1.793-4.005-4.004s1.792-4.004 4.005-4.004c2.211 0 4.003 1.793 4.003 4.004z"></path>
</symbol>
<symbol id="icon-letter-H" viewBox="0 0 43 32">
<path d="M6.932 4.571h-3.198c-0.888 0-1.602 0.764-1.602 1.714v7.429h-1.599c-0.294 0-0.534 0.257-0.534 0.571v3.429c0 0.314 0.24 0.571 0.534 0.571h1.599v7.429c0 0.95 0.714 1.714 1.602 1.714h3.198c0.888 0 1.602-0.764 1.602-1.714v-19.429c0-0.95-0.714-1.714-1.602-1.714zM42.133 13.714h-1.599v-7.429c0-0.95-0.714-1.714-1.602-1.714h-3.198c-0.888 0-1.602 0.764-1.602 1.714v19.429c0 0.95 0.714 1.714 1.602 1.714h3.198c0.888 0 1.602-0.764 1.602-1.714v-7.429h1.599c0.294 0 0.534-0.257 0.534-0.571v-3.429c0-0.314-0.239-0.571-0.534-0.571zM30.401 0h-3.201c-0.888 0-1.602 0.764-1.602 1.714v12h-8.531v-12c0-0.95-0.714-1.714-1.602-1.714h-3.2c-0.885 0-1.599 0.764-1.599 1.714v28.571c0 0.95 0.714 1.714 1.599 1.714h3.2c0.888 0 1.602-0.764 1.602-1.714v-12h8.531v12c0 0.95 0.714 1.714 1.602 1.714h3.201c0.885 0 1.599-0.764 1.599-1.714v-28.571c0-0.95-0.714-1.714-1.599-1.714z"></path>
</symbol>
<symbol id="icon-quotes" viewBox="0 0 38 32">
<path d="M7.732 17.116c2.392-0.947 4.308-0.699 5.751 0.744 1.445 1.443 1.873 3.743 1.286 6.9-0.45 2.345-1.443 4.15-2.977 5.412-1.488 1.218-3.224 1.827-5.209 1.827-2.706 0-4.577-1.037-5.616-3.112-1.037-2.12-1.239-4.961-0.608-8.524 0.361-1.939 0.946-3.901 1.759-5.886 0.811-1.984 1.893-4.014 3.246-6.089s3.113-3.879 5.278-5.412c2.164-1.534 4.556-2.526 7.171-2.977l-0.677 7.171c-2.209 0.451-4.171 1.601-5.885 3.45-1.714 1.804-2.887 3.969-3.519 6.495zM28.097 17.116c2.39-0.947 4.306-0.699 5.751 0.744 1.443 1.443 1.871 3.743 1.284 6.9-0.45 2.345-1.443 4.15-2.975 5.412-1.489 1.218-3.226 1.827-5.21 1.827-2.706 0-4.577-1.037-5.614-3.112-1.037-2.12-1.241-4.961-0.609-8.524 0.361-1.939 0.947-3.901 1.759-5.886s1.895-4.014 3.248-6.089 3.112-3.879 5.276-5.412c2.166-1.534 4.556-2.526 7.171-2.977l-0.676 7.171c-2.209 0.451-4.171 1.601-5.885 3.45-1.714 1.804-2.886 3.969-3.517 6.495z"></path>
</symbol>
<symbol id="icon-running-man" viewBox="0 0 29 32">
<path d="M28.367 9.451c-0.43-0.501-1.194-0.567-1.706-0.149l-3.359 2.757-1.544-3.739c-0.056-0.14-0.139-0.258-0.234-0.362-0.316-0.686-0.864-1.275-1.619-1.617-0.328-0.146-0.667-0.224-1.006-0.262-0.075-0.038-0.142-0.088-0.227-0.114l-5.911-1.61c-0.331-0.088-0.666-0.031-0.939 0.125-0.323 0.107-0.603 0.338-0.736 0.672l-2.225 5.592c-0.241 0.608 0.067 1.294 0.692 1.534 0.62 0.236 1.323-0.068 1.567-0.678l1.88-4.722 2.692 0.731c-0.066 0.104-0.136 0.201-0.189 0.312l-3.452 7.309c-0.050 0.107-0.077 0.217-0.113 0.328l-4.194 6.871-7.019 2.294c-0.795 0.58-0.964 1.674-0.377 2.45 0.591 0.778 1.712 0.943 2.506 0.369l7.183-2.417c0.219-0.156 0.378-0.36 0.5-0.581 0.091-0.093 0.192-0.168 0.262-0.284l2.5-4.096 4.439 3.696-4.75 5.23c-0.653 0.721-0.588 1.832 0.153 2.469 0.739 0.643 1.873 0.575 2.531-0.149l5.927-6.524c0.184-0.201 0.294-0.433 0.369-0.676 0.044-0.132 0.044-0.268 0.055-0.405 0-0.069 0.027-0.132 0.022-0.196-0.017-0.478-0.216-0.943-0.616-1.274l-4.084-3.403c0.294-0.274 0.544-0.6 0.725-0.983l2.647-5.599 0.847 2.206c0.036 0.196 0.103 0.388 0.245 0.549 0.127 0.149 0.291 0.248 0.464 0.317 0.017 0.009 0.039 0.010 0.061 0.016 0.109 0.038 0.222 0.075 0.336 0.080 0.138 0.012 0.275-0.005 0.416-0.043 0.003-0.002 0.005-0.002 0.005-0.002 0.038-0.009 0.075-0.002 0.112-0.017 0.197-0.073 0.347-0.196 0.477-0.34l4.82-3.998c0.512-0.421 0.297-1.166-0.134-1.667z"></path>
<path d="M25.648 3.301c0 1.823-1.512 3.301-3.378 3.301s-3.378-1.478-3.378-3.301c0-1.823 1.512-3.301 3.378-3.301s3.378 1.478 3.378 3.301z"></path>
</symbol>
<symbol id="icon-search" viewBox="0 0 32 32">
<path stroke-linejoin="round" stroke-linecap="butt" stroke-miterlimit="4" stroke-width="2.6667" d="M14.667 25.333c-5.891 0-10.667-4.776-10.667-10.667s4.776-10.667 10.667-10.667c5.891 0 10.667 4.776 10.667 10.667s-4.776 10.667-10.667 10.667z"></path>
<path stroke-linejoin="round" stroke-linecap="round" stroke-miterlimit="4" stroke-width="2.6667" d="M28 28l-5.8-5.8"></path>
</symbol>
<symbol id="icon-star" viewBox="0 0 33 32">
<path d="M15.026 1.238l-2.721 8.375c-0.24 0.738-0.927 1.238-1.704 1.238h-8.805c-1.736 0-2.457 2.221-1.053 3.242l7.124 5.176c0.628 0.456 0.891 1.265 0.651 2.003l-2.721 8.375c-0.535 1.651 1.353 3.024 2.758 2.003l7.124-5.176c0.628-0.456 1.479-0.456 2.107 0l7.124 5.176c1.405 1.020 3.293-0.352 2.758-2.003l-2.721-8.375c-0.24-0.738 0.023-1.547 0.651-2.003l7.124-5.176c1.403-1.020 0.682-3.242-1.053-3.242h-8.805c-0.777 0-1.465-0.5-1.704-1.238l-2.721-8.375c-0.537-1.651-2.872-1.651-3.409 0z"></path>
</symbol>
<symbol id="icon-trash" viewBox="0 0 32 32">
<path stroke-linejoin="round" stroke-linecap="butt" stroke-miterlimit="4" stroke-width="2.6" d="M10.666 8v-1.067c0-1.494 0-2.24 0.291-2.811 0.256-0.502 0.664-0.91 1.166-1.165 0.57-0.291 1.316-0.291 2.811-0.291h2.133c1.494 0 2.24 0 2.811 0.291 0.502 0.256 0.91 0.664 1.166 1.165 0.291 0.57 0.291 1.317 0.291 2.811v1.067M13.334 15.333v6.667M18.666 15.333v6.667M4 8h24M25.334 8v14.933c0 2.24 0 3.36-0.438 4.216-0.383 0.753-0.994 1.365-1.748 1.748-0.855 0.436-1.975 0.436-4.215 0.436h-5.867c-2.24 0-3.359 0-4.215-0.436-0.754-0.383-1.365-0.995-1.748-1.748-0.438-0.856-0.438-1.976-0.438-4.216v-14.933"></path>
</symbol>
<symbol id="icon-youtube" viewBox="0 0 32 32">
<path d="M24.241 6c-1.359-0.080-4.159-0.16-8.4-0.16h-0.559c-4.081 0-6.8 0.080-8.161 0.24-1.839 0.16-3.12 0.64-3.839 1.28-0.641 0.56-1.12 1.6-1.281 2.96-0.080 0.88-0.159 2.72-0.159 5.52v0.4c0 2.64 0.080 4.48 0.241 5.36 0.239 1.28 0.639 2.24 1.439 2.8 0.8 0.64 2.161 1.040 4.080 1.2 1.361 0.080 4.161 0.16 8.4 0.16h0.561c4.080 0 6.8-0.080 8.159-0.24 1.841-0.16 3.12-0.64 3.841-1.28 0.639-0.56 1.12-1.6 1.28-2.96 0.080-0.88 0.159-2.72 0.159-5.52v-0.4c0-2.64-0.080-4.48-0.239-5.36-0.241-1.28-0.641-2.24-1.441-2.8-0.8-0.64-2.159-1.040-4.080-1.2zM21.12 15.84l-8.8 5.28v-10.56l8.8 5.28z"></path>
</symbol>
</defs>
</svg>
